<mxfile host="Electron" modified="2023-08-09T11:31:24.594Z" agent="Mozilla/5.0 (Macintosh; Intel Mac OS X 10_15_7) AppleWebKit/537.36 (KHTML, like Gecko) draw.io/21.2.8 Chrome/112.0.5615.165 Electron/24.2.0 Safari/537.36" etag="hTy5hTaH-F8SeiU3SQ2c" version="21.2.8" type="device">
  <diagram name="Page-1" id="ulrfTCVi9L4FmQh6ea2E">
    <mxGraphModel dx="513" dy="344" grid="1" gridSize="10" guides="1" tooltips="1" connect="1" arrows="1" fold="1" page="1" pageScale="1" pageWidth="850" pageHeight="1100" math="0" shadow="0">
      <root>
        <mxCell id="0" />
        <mxCell id="1" parent="0" />
        <mxCell id="2-vFMdC06Nq8ayGPXuzi-3" value="" style="endArrow=none;html=1;rounded=0;" edge="1" parent="1" source="2-vFMdC06Nq8ayGPXuzi-9">
          <mxGeometry width="50" height="50" relative="1" as="geometry">
            <mxPoint x="240" y="330" as="sourcePoint" />
            <mxPoint x="240" y="220" as="targetPoint" />
          </mxGeometry>
        </mxCell>
        <mxCell id="2-vFMdC06Nq8ayGPXuzi-4" value="aPrintButton" style="text;html=1;strokeColor=none;fillColor=none;align=center;verticalAlign=middle;whiteSpace=wrap;rounded=0;" vertex="1" parent="1">
          <mxGeometry x="210" y="193" width="60" height="30" as="geometry" />
        </mxCell>
        <mxCell id="2-vFMdC06Nq8ayGPXuzi-5" value="" style="endArrow=none;html=1;rounded=0;" edge="1" parent="1" source="2-vFMdC06Nq8ayGPXuzi-11">
          <mxGeometry width="50" height="50" relative="1" as="geometry">
            <mxPoint x="360" y="330" as="sourcePoint" />
            <mxPoint x="360" y="220" as="targetPoint" />
          </mxGeometry>
        </mxCell>
        <mxCell id="2-vFMdC06Nq8ayGPXuzi-6" value="aPrintDialog" style="text;html=1;strokeColor=none;fillColor=none;align=center;verticalAlign=middle;whiteSpace=wrap;rounded=0;" vertex="1" parent="1">
          <mxGeometry x="330" y="193" width="60" height="30" as="geometry" />
        </mxCell>
        <mxCell id="2-vFMdC06Nq8ayGPXuzi-7" value="" style="endArrow=none;html=1;rounded=0;" edge="1" parent="1" source="2-vFMdC06Nq8ayGPXuzi-13">
          <mxGeometry width="50" height="50" relative="1" as="geometry">
            <mxPoint x="470" y="330" as="sourcePoint" />
            <mxPoint x="470" y="220" as="targetPoint" />
          </mxGeometry>
        </mxCell>
        <mxCell id="2-vFMdC06Nq8ayGPXuzi-8" value="anApplication" style="text;html=1;strokeColor=none;fillColor=none;align=center;verticalAlign=middle;whiteSpace=wrap;rounded=0;" vertex="1" parent="1">
          <mxGeometry x="440" y="193" width="60" height="30" as="geometry" />
        </mxCell>
        <mxCell id="2-vFMdC06Nq8ayGPXuzi-10" value="" style="endArrow=none;html=1;rounded=0;" edge="1" parent="1" target="2-vFMdC06Nq8ayGPXuzi-9">
          <mxGeometry width="50" height="50" relative="1" as="geometry">
            <mxPoint x="240" y="330" as="sourcePoint" />
            <mxPoint x="240" y="220" as="targetPoint" />
          </mxGeometry>
        </mxCell>
        <mxCell id="2-vFMdC06Nq8ayGPXuzi-9" value="" style="html=1;points=[];perimeter=orthogonalPerimeter;outlineConnect=0;targetShapes=umlLifeline;portConstraint=eastwest;newEdgeStyle={&quot;edgeStyle&quot;:&quot;elbowEdgeStyle&quot;,&quot;elbow&quot;:&quot;vertical&quot;,&quot;curved&quot;:0,&quot;rounded&quot;:0};" vertex="1" parent="1">
          <mxGeometry x="235" y="230" width="10" height="90" as="geometry" />
        </mxCell>
        <mxCell id="2-vFMdC06Nq8ayGPXuzi-12" value="" style="endArrow=none;html=1;rounded=0;" edge="1" parent="1" target="2-vFMdC06Nq8ayGPXuzi-11">
          <mxGeometry width="50" height="50" relative="1" as="geometry">
            <mxPoint x="360" y="330" as="sourcePoint" />
            <mxPoint x="360" y="220" as="targetPoint" />
          </mxGeometry>
        </mxCell>
        <mxCell id="2-vFMdC06Nq8ayGPXuzi-11" value="" style="html=1;points=[];perimeter=orthogonalPerimeter;outlineConnect=0;targetShapes=umlLifeline;portConstraint=eastwest;newEdgeStyle={&quot;edgeStyle&quot;:&quot;elbowEdgeStyle&quot;,&quot;elbow&quot;:&quot;vertical&quot;,&quot;curved&quot;:0,&quot;rounded&quot;:0};" vertex="1" parent="1">
          <mxGeometry x="355" y="250" width="10" height="70" as="geometry" />
        </mxCell>
        <mxCell id="2-vFMdC06Nq8ayGPXuzi-14" value="" style="endArrow=none;html=1;rounded=0;" edge="1" parent="1" target="2-vFMdC06Nq8ayGPXuzi-13">
          <mxGeometry width="50" height="50" relative="1" as="geometry">
            <mxPoint x="470" y="330" as="sourcePoint" />
            <mxPoint x="470" y="220" as="targetPoint" />
          </mxGeometry>
        </mxCell>
        <mxCell id="2-vFMdC06Nq8ayGPXuzi-13" value="" style="html=1;points=[];perimeter=orthogonalPerimeter;outlineConnect=0;targetShapes=umlLifeline;portConstraint=eastwest;newEdgeStyle={&quot;edgeStyle&quot;:&quot;elbowEdgeStyle&quot;,&quot;elbow&quot;:&quot;vertical&quot;,&quot;curved&quot;:0,&quot;rounded&quot;:0};" vertex="1" parent="1">
          <mxGeometry x="465" y="280" width="10" height="40" as="geometry" />
        </mxCell>
        <mxCell id="2-vFMdC06Nq8ayGPXuzi-15" value="" style="endArrow=classic;html=1;rounded=0;" edge="1" parent="1" source="2-vFMdC06Nq8ayGPXuzi-9" target="2-vFMdC06Nq8ayGPXuzi-11">
          <mxGeometry width="50" height="50" relative="1" as="geometry">
            <mxPoint x="270" y="310" as="sourcePoint" />
            <mxPoint x="340" y="260" as="targetPoint" />
            <Array as="points">
              <mxPoint x="310" y="260" />
            </Array>
          </mxGeometry>
        </mxCell>
        <mxCell id="2-vFMdC06Nq8ayGPXuzi-17" value="HandleHelp()" style="edgeLabel;html=1;align=center;verticalAlign=middle;resizable=0;points=[];fontSize=8;" vertex="1" connectable="0" parent="2-vFMdC06Nq8ayGPXuzi-15">
          <mxGeometry x="-0.4274" relative="1" as="geometry">
            <mxPoint x="-5" y="-8" as="offset" />
          </mxGeometry>
        </mxCell>
        <mxCell id="2-vFMdC06Nq8ayGPXuzi-16" value="" style="endArrow=classic;html=1;rounded=0;" edge="1" parent="1" source="2-vFMdC06Nq8ayGPXuzi-11" target="2-vFMdC06Nq8ayGPXuzi-13">
          <mxGeometry width="50" height="50" relative="1" as="geometry">
            <mxPoint x="365" y="310" as="sourcePoint" />
            <mxPoint x="475" y="310" as="targetPoint" />
            <Array as="points">
              <mxPoint x="430" y="285" />
            </Array>
          </mxGeometry>
        </mxCell>
        <mxCell id="2-vFMdC06Nq8ayGPXuzi-18" value="HandleHelp()" style="edgeLabel;html=1;align=center;verticalAlign=middle;resizable=0;points=[];fontSize=8;" vertex="1" connectable="0" parent="2-vFMdC06Nq8ayGPXuzi-16">
          <mxGeometry x="-0.4825" y="1" relative="1" as="geometry">
            <mxPoint y="-7" as="offset" />
          </mxGeometry>
        </mxCell>
      </root>
    </mxGraphModel>
  </diagram>
</mxfile>
